# xmcd CD database file
#
# Track frame offsets:
#	150
#	10662
#	23575
#	34460
#	46210
#	56745
#	69417
#	80957
#	97130
#	107435
#	116645
#	128905
#
# Disc length: 1907 seconds
#
# Revision: 1
# Processed by: cddbd v1.4PL0 Copyright (c) Steve Scherf et al.
# Submitted via: CDex 1.51
#
DISCID=9f07710c
DTITLE=Jimmy Reed - Rockin' With Reed
DYEAR=1994
DGENRE=Blues
TTITLE0=Ain't That Lovin' You Baby
TTITLE1=You Got Me Dizzy
TTITLE2=Baby What You Want Me To Do
TTITLE3=Hush Hush
TTITLE4=Found Love
TTITLE5=Shame, Shame, Shame
TTITLE6=Rockin' With Reed
TTITLE7=Cold And Lonesome
TTITLE8=My Bitter Seed
TTITLE9=Shoot My Baby
TTITLE10=Little Rain
TTITLE11=Bab What's Wrong
EXTD=YEAR: 1994
EXTT0=
EXTT1=
EXTT2=
EXTT3=
EXTT4=
EXTT5=
EXTT6=
EXTT7=
EXTT8=
EXTT9=
EXTT10=
EXTT11=
PLAYORDER=
